<?xml version="1.0" encoding="UTF-8"?>
<svg width="700pt" height="700pt" version="1.1" viewBox="0 0 700 700" xmlns="http://www.w3.org/2000/svg">
 <g>
  <path d="m514.23 128.26c-14.988-53.508-63.863-91.055-121.01-91.055-31.359 0-61.645 11.766-84.75 32.625-11.004-3.1875-22.422-4.793-34.078-4.793-48.109 0-90.629 27.191-108.55 68.504-36.23 14.363-60.84 51.414-60.84 93.191 0 48.508 32.625 89.609 77.57 97.719 1.0273 0.1875 2.0664 0.28125 3.1094 0.28125h328.64c1.043 0 2.0859-0.09375 3.1094-0.28125 44.949-8.1094 77.574-49.207 77.574-97.719 0-50.105-35.223-91.797-80.766-98.473z"/>
  <path d="m248.98 423.79 25.379-38.051c5.3672-8.0391 3.1953-18.902-4.8555-24.27-8.0312-5.375-18.918-3.1797-24.27 4.8555l-25.379 38.051c-5.3672 8.0391-3.1953 18.902 4.8555 24.27 2.9727 1.9922 6.3555 2.9414 9.6914 2.9414 5.6602-0.003906 11.211-2.7383 14.578-7.7969z"/>
  <path d="m351.88 423.79 25.363-38.051c5.3672-8.0391 3.1953-18.91-4.8555-24.27-8.0664-5.375-18.918-3.1797-24.27 4.8555l-25.363 38.051c-5.3672 8.0391-3.1953 18.91 4.8555 24.27 2.9922 1.9922 6.3555 2.9414 9.6914 2.9414 5.6562-0.003906 11.211-2.7383 14.578-7.7969z"/>
  <path d="m451.02 366.32-25.379 38.051c-5.3672 8.0391-3.1953 18.902 4.8555 24.27 2.9727 1.9922 6.3555 2.9414 9.6914 2.9414 5.6562 0 11.211-2.7344 14.578-7.793l25.379-38.051c5.3672-8.0391 3.1953-18.902-4.8555-24.27-8.0352-5.375-18.922-3.1797-24.27 4.8516z"/>
  <path d="m270.6 457.54-25.363 38.051c-5.3672 8.0391-3.1953 18.91 4.8555 24.27 2.9922 1.9922 6.3555 2.9414 9.6914 2.9414 5.6562 0 11.211-2.7344 14.578-7.793l25.363-38.051c5.3672-8.0391 3.1953-18.91-4.8555-24.27-8.0859-5.3867-18.922-3.1914-24.27 4.8516z"/>
  <path d="m373.48 457.54-25.363 38.051c-5.3672 8.0391-3.1953 18.91 4.8555 24.27 2.9922 1.9922 6.3555 2.9414 9.6914 2.9414 5.6562 0 11.211-2.7344 14.578-7.793l25.363-38.051c5.3672-8.0391 3.1953-18.91-4.8555-24.27-8.0664-5.3867-18.918-3.1914-24.27 4.8516z"/>
 </g>
</svg>
